<?xml version="1.0" encoding="UTF-8"?>
<svg width="16px" height="16px" viewBox="0 0 16 16" version="1.1" xmlns="http://www.w3.org/2000/svg" xmlns:xlink="http://www.w3.org/1999/xlink">
    <!-- Generator: Sketch 59.1 (86144) - https://sketch.com -->
    <title>ico</title>
    <desc>Created with Sketch.</desc>
    <defs>
        <path d="M10.4554455,-6.39488462e-14 L10.4556101,5.90664388 C9.97655568,5.77390316 9.47180899,5.7029703 8.95049505,5.7029703 C5.84457685,5.7029703 3.32673267,8.22081448 3.32673267,11.3267327 C3.32673267,13.1759363 4.21925339,14.8166806 5.59701794,15.8416886 L-3.12638804e-13,15.8415842 L-3.12638804e-13,-6.39488462e-14 L10.4554455,-6.39488462e-14 Z" id="path-1"></path>
        <linearGradient x1="50%" y1="0%" x2="50%" y2="100%" id="linearGradient-3">
            <stop stop-color="#96CAFF" offset="0%"></stop>
            <stop stop-color="#0052FE" offset="100%"></stop>
        </linearGradient>
        <path d="M4.9448899,0.0274210585 C4.99989144,1.48899371 3.89361052,3.61833778 1.62604713,6.41545325 C-2.14280143,11.2615924 1.31861563,15.81818 5.12560305,15.81818 C8.93259046,15.81818 12.4023746,11.7811814 9.15071267,6.93438152 C8.30953068,5.55658709 6.46955803,3.44987618 6.22686899,2.6904361 C5.37105625,4.33887275 5.71389995,5.95315571 5.12560305,7.30054919 C4.60451687,8.67300887 6.84606323,10.6572577 5.22069635,10.5470574 C3.97970053,10.353872 4.0296272,8.80494444 4.13395077,8.44141196 C5.3205499,4.3322042 5.59086294,1.52754057 4.9448899,0.0274210585 Z" id="path-4"></path>
        <linearGradient x1="51.8846576%" y1="13.0142653%" x2="51.1659668%" y2="86.1927684%" id="linearGradient-6">
            <stop stop-color="#96CAFF" offset="0%"></stop>
            <stop stop-color="#0300CC" offset="100%"></stop>
        </linearGradient>
        <linearGradient x1="50%" y1="31.835801%" x2="50%" y2="100%" id="linearGradient-7">
            <stop stop-color="#7FA9FF" offset="0%"></stop>
            <stop stop-color="#021580" offset="100%"></stop>
        </linearGradient>
        <linearGradient x1="50%" y1="0%" x2="50%" y2="100%" id="linearGradient-8">
            <stop stop-color="#96CAFF" offset="0%"></stop>
            <stop stop-color="#0022E6" offset="100%"></stop>
        </linearGradient>
        <path d="M8.95049505,6.81188119 C11.4439787,6.81188119 13.4653465,8.83324905 13.4653465,11.3267327 C13.4653465,13.8202163 11.4439787,15.8415842 8.95049505,15.8415842 C6.45701143,15.8415842 4.43564356,13.8202163 4.43564356,11.3267327 C4.43564356,8.83324905 6.45701143,6.81188119 8.95049505,6.81188119 Z M8.85059158,8.02188207 L8.60288021,8.94635351 L7.53148139,8.65927306 C7.47772337,8.64486864 7.42268882,8.67597785 7.40854449,8.72876522 L7.32227644,9.05072198 C7.30908056,9.09996967 7.33511609,9.15263659 7.38391673,9.17049619 C7.74089725,9.30144781 7.87238779,9.5949899 7.79304757,9.89109163 L7.26343925,11.8676168 C7.19205779,12.134016 6.99543907,12.3079714 6.68175167,12.2549294 C6.63722436,12.247452 6.593053,12.2681111 6.57360412,12.3080957 L6.42444668,12.6165003 C6.39777253,12.6715385 6.42883215,12.737428 6.48901606,12.7535542 L7.50916454,13.0269022 L7.26145316,13.9513736 C7.24735007,14.0040071 7.27972901,14.0587036 7.33317356,14.073024 L7.65775914,14.1599965 C7.71136042,14.1743589 7.76663418,14.1429839 7.78069604,14.0905043 L8.02840741,13.1660329 L8.54780702,13.3052056 L8.30009564,14.229677 C8.28599255,14.2823105 8.31837149,14.337007 8.37181605,14.3513274 L8.69640162,14.4382999 C8.7500029,14.4526623 8.80527666,14.4212873 8.81933852,14.3688077 L9.06704989,13.4443363 C9.25104963,13.4936389 9.40386031,13.5345844 9.50526393,13.5617554 C10.1238729,13.7275112 10.7667348,13.3338272 10.9412915,12.6823727 C11.0508654,12.275939 10.9517379,11.8653778 10.7115614,11.5737237 C10.9112244,11.4109758 11.0657223,11.181693 11.1392481,10.907291 C11.3161553,10.2470642 10.9580455,9.57741814 10.3395932,9.41170435 C10.2900669,9.39843381 10.229883,9.38230758 10.161079,9.36387161 L10.4087904,8.43940017 C10.4228935,8.3867667 10.3905145,8.33207017 10.33707,8.31774974 L10.012171,8.23069331 C9.95856968,8.21633089 9.90329592,8.24770592 9.88923406,8.30018549 L9.64152269,9.22465692 L9.12212308,9.08548422 L9.36983446,8.16101278 C9.38393755,8.10837931 9.35155861,8.05368276 9.29811406,8.03936234 L8.97352849,7.9523899 C8.9199272,7.93802748 8.86465344,7.96940251 8.85059158,8.02188207 Z M8.50695597,11.3806923 C8.50695597,11.3806923 9.2661508,11.5841179 9.56205497,11.6634052 C9.85795914,11.7426925 10.0346616,12.0424109 9.9568059,12.3329723 C9.87895022,12.6235336 9.5760622,12.7947462 9.28015803,12.7154589 C8.98425385,12.6361717 8.22505902,12.432746 8.22505902,12.432746 L8.50695597,11.3806923 Z M8.91697664,9.85047427 C8.91697664,9.85047427 9.41647168,9.98431356 9.71237585,10.0636008 C10.00828,10.1428881 10.1849825,10.4426066 10.1071268,10.7331679 C10.0292711,11.0237293 9.72638308,11.1949418 9.4304789,11.1156546 C9.13457473,11.0363673 8.6350797,10.902528 8.6350797,10.902528 L8.91697664,9.85047427 Z" id="path-9"></path>
    </defs>
    <g id=".ico" stroke="none" stroke-width="1" fill="none" fill-rule="evenodd">
        <g id="编组-10备份-5" transform="translate(1.000000, 0.000000)">
            <g id="路径-21-+-路径-20-蒙版">
                <mask id="mask-2" fill="white">
                    <use xlink:href="#path-1"></use>
                </mask>
                <g id="蒙版"></g>
                <g mask="url(#mask-2)">
                    <mask id="mask-5" fill="white">
                        <use xlink:href="#path-4"></use>
                    </mask>
                    <use id="蒙版" fill="url(#linearGradient-3)" xlink:href="#path-4"></use>
                    <path d="M2.96278606,7.9157381 C1.57966566,10.9536376 2.96278606,14.9604829 5.12560305,15.81818 C7.28842004,16.6758771 13.8464561,13.1636019 9.15071267,6.93438152 C8.30953068,5.55658709 6.46955803,3.44987618 6.22686899,2.6904361 C5.89133393,3.07253666 5.40292774,4.98102927 5.94134673,6.93438152 C6.47976572,8.88773378 6.84606323,10.6572577 5.22069635,10.5470574 C3.97970053,10.353872 4.0296272,8.80494444 4.13395077,8.44141196 C5.91384946,2.27760033 6.36413114,3.72006488 2.96278606,7.9157381 Z" id="蒙版" fill="url(#linearGradient-6)" mask="url(#mask-5)"></path>
                    <path d="M6.38963017,2.34310407 C5.92509883,3.14269643 6.01630399,4.41680211 6.66324564,6.1654211 C7.63365812,8.7883496 9.42773222,12.1085804 6.38963017,13.3766741 C4.50702637,14.0311574 2.46684846,11.8874134 3.84377241,7.05145179 C4.7617217,3.82747741 5.61034096,2.25802817 6.38963017,2.34310407 Z" id="路径-21" fill="url(#linearGradient-7)" mask="url(#mask-5)"></path>
                    <path d="M4.91343638,-0.156881749 C4.99006628,2.20441439 4.44760725,4.39264266 3.28605927,6.40780308 C1.5437373,9.4305437 -0.553302447,14.1523483 3.78800708,15.6387545 C6.68221344,16.6296919 8.14866377,16.3813196 8.18735807,14.8936375 C6.0900388,15.8632952 4.62358847,15.243024 3.78800708,13.0328239 C3.30989879,11.9272481 3.97111823,8.75797552 4.13395077,8.44141196 C4.24250579,8.23036959 4.82882004,5.96523107 5.89289351,1.64599638 L4.91343638,-0.156881749 Z" id="路径-20" fill="url(#linearGradient-8)" mask="url(#mask-5)"></path>
                </g>
            </g>
            <mask id="mask-10" fill="white">
                <use xlink:href="#path-9"></use>
            </mask>
            <use id="形状结合" fill="#F89928" fill-rule="nonzero" xlink:href="#path-9"></use>
        </g>
    </g>
</svg>