<?xml version="1.0" encoding="UTF-8"?>
<svg width="1000px" height="1000px" viewBox="0 0 1000 1000" version="1.1" xmlns="http://www.w3.org/2000/svg" xmlns:xlink="http://www.w3.org/1999/xlink">
    <title>编组 2</title>
    <g id="页面-1" stroke="none" stroke-width="1" fill="none" fill-rule="evenodd">
        <g id="编组-2">
            <circle id="椭圆形" fill="#FFFFFF" cx="500" cy="500" r="500"></circle>
            <g id="编组" transform="translate(290.858726, 152.354571)">
                <path d="M283.689004,203.875344 C283.689004,108.761398 237.358317,26.971785 202.111686,0.334293397 C201.972018,0.250492563 199.413299,-1.18529505 199.631182,2.61926279 L199.586488,2.73658395 C196.653459,186.37773 102.835632,236.149838 51.2590128,303.201679 C-67.7661042,457.925951 42.92921,627.566771 155.652504,658.919456 C218.726598,676.461764 141.087919,627.874041 131.087687,525.257127 C118.99802,401.226307 283.689004,306.553712 283.689004,203.875344" id="Fill-7" fill="#131322"></path>
                <path d="M337.774062,266.396353 C337.053375,265.910308 336.025418,265.569518 335.315904,266.742729 C333.377312,289.866173 309.762237,339.308664 279.834166,384.723129 C178.317836,538.737888 236.168345,612.979839 268.699828,652.857862 C287.588536,676.014826 268.699828,652.857862 315.907631,629.20368 C319.606041,627.348889 408.021507,577.761142 417.591562,464.792032 C426.865521,355.387251 361.160081,286.430338 337.774062,266.396353" id="Fill-8" fill="#2B7DB3"></path>
            </g>
        </g>
    </g>
</svg>